<?xml version="1.0" encoding="UTF-8"?>
<svg id="Layer_1" data-name="Layer 1" xmlns="http://www.w3.org/2000/svg" version="1.1" viewBox="0 0 64 64">
  <defs>
    <style>
      .cls-1 {
        fill: #053848;
      }

      .cls-1, .cls-2, .cls-3, .cls-4, .cls-5, .cls-6, .cls-7 {
        stroke-width: 0px;
      }

      .cls-2 {
        fill: #023746;
      }

      .cls-3 {
        fill: #043847;
      }

      .cls-4 {
        fill: #3578b1;
      }

      .cls-5 {
        fill: #023646;
      }

      .cls-6 {
        fill: #003545;
      }

      .cls-7 {
        fill: #043848;
      }
    </style>
  </defs>
  <path class="cls-4" d="M-50.96,551.02c.2-.01.4-.03.6-.05v.58c-.21-.05-.41-.11-.62-.16-.05-.13-.05-.25.02-.38Z"/>
  <path class="cls-6" d="M59.71,7.17c.51.14.63.53.63,1,0,1.45-.35,2.76-1.4,3.82-.5.5-1.06.92-1.64,1.33-.52.36-1.05.73-1.56,1.12-1.06.81-1.76,1.83-2.07,3.14-.42,1.75-.78,3.52-1.19,5.27-.59,2.51-1.26,4.98-2.36,7.32-.7,1.49-1.55,2.87-2.74,4.03-.66.64-1.41,1.13-2.25,1.51.05-.52.11-1.02.15-1.52.03-.28.04-.56.06-.84,0-.09,0-.2-.1-.22-.11-.02-.16.07-.2.17-.32.81-.64,1.61-1.03,2.38-1.01,1.96-2.31,3.68-4.14,4.95-1.21.84-2.54,1.42-3.99,1.73-.51.11-1.04.13-1.62.13.31-.33.6-.63.87-.94.65-.75,1.17-1.59,1.67-2.44,1.04-1.74,1.68-3.63,1.9-5.65.03-.26.04-.52.06-.78,0-.06.04-.15-.04-.18-.09-.03-.12.06-.16.12-.16.23-.28.49-.38.75-.26.67-.46,1.36-.77,2.01-.22.47-.48.9-.9,1.23-.13.1-.27.16-.43.17-1.28.11-2.57.06-3.85-.06-1.96-.19-3.91-.54-5.89-.64-1.5-.08-2.98,0-4.43.44-1.12.34-2.13.92-3.13,1.53-1.11.68-2.16,1.47-3.33,2.05-1.55.77-3.08,1.59-4.73,2.13-.95.31-1.93.41-2.92.39-.5,0-.67-.24-.53-.72.1-.37.32-.68.53-1,.39-.59.83-1.14,1.26-1.7.11-.15.1-.24-.06-.31-.79-.36-1.41-.96-2.07-1.49-.29-.23-.6-.44-.95-.58-.14-.05-.14-.11-.06-.22.52-.67,1.19-1.08,2.04-1.17.91-.1,1.81.02,2.7.16,1.14.17,2.28.42,3.43.5.33.02.67.02,1-.04.34-.05.62-.2.87-.45.64-.65,1.23-1.33,1.74-2.09,1.02-1.53,2.35-2.74,3.84-3.8,1.14-.81,2.44-1.26,3.74-1.73,3.09-1.13,6.27-2,9.36-3.12,1.26-.46,2.49-.98,3.69-1.59,2.04-1.03,3.64-2.53,4.91-4.42.95-1.41,1.76-2.9,2.63-4.36.74-1.24,1.54-2.43,2.55-3.47,1.45-1.5,3.2-2.4,5.29-2.62.77-.08,1.54-.12,2.31-.16.55-.03,1.07-.16,1.57-.38.59-.26,1.15-.59,1.79-.74h.31Z"/>
  <path class="cls-5" d="M12.28,48.29c-.2.44-.4.88-.6,1.32-.64,1.42-1.28,2.83-1.91,4.25-.05.12-.11.17-.24.16-.33-.01-.65-.01-.98,0-.15,0-.22-.05-.28-.18-.8-1.78-1.6-3.55-2.4-5.33-.03-.07-.04-.15-.14-.22-.14.58-.28,1.14-.42,1.71-.32,1.28-.63,2.56-.95,3.84-.03.14-.09.19-.24.18-.45-.01-.9,0-1.37,0,.19-.74.37-1.46.55-2.17.49-1.91.98-3.82,1.47-5.73.04-.15.09-.22.26-.21.33.02.65.01.98,0,.15,0,.22.05.28.19.87,1.95,1.76,3.9,2.64,5.85.03.06.06.12.1.21.21-.46.4-.89.6-1.32.71-1.57,1.41-3.15,2.12-4.72.07-.15.14-.21.31-.2.3.02.61.02.91,0,.18,0,.25.04.3.22.6,2.33,1.2,4.66,1.81,6.99.07.29.15.57.23.89h-1.14c-.47,0-.46,0-.57-.46-.41-1.73-.83-3.46-1.25-5.19,0-.03,0-.08-.07-.09Z"/>
  <path class="cls-1" d="M57.96,49.77c.52.09.96.26,1.29.64.97,1.12.48,2.92-.91,3.39-.48.17-.98.22-1.49.22-1.49,0-2.99,0-4.48,0-.18,0-.21-.06-.21-.22,0-2.56,0-5.11,0-7.67,0-.19.05-.23.23-.23,1.4,0,2.79,0,4.19,0,.51,0,1.02.05,1.52.21.95.3,1.38.92,1.36,1.92,0,.45-.09.87-.42,1.21-.23.24-.52.36-.83.45-.07.02-.14.04-.25.07ZM55.17,53.32c.54,0,1.08,0,1.63,0,.34,0,.66-.05.98-.18.61-.25.92-.72.91-1.41,0-.7-.33-1.18-.95-1.41-.33-.12-.68-.17-1.03-.17-1.13,0-2.26,0-3.39,0-.15,0-.19.04-.18.18,0,.94,0,1.87,0,2.81,0,.17.06.19.2.19.61,0,1.22,0,1.83,0ZM55.24,49.45c.59-.02,1.29.04,2-.07.77-.12,1.17-.55,1.19-1.26.02-.84-.31-1.28-1.08-1.44-.17-.03-.34-.06-.51-.06-1.17,0-2.35,0-3.52-.01-.13,0-.18.03-.18.17,0,.83,0,1.66,0,2.5,0,.14.04.18.18.17.6,0,1.2,0,1.92,0Z"/>
  <path class="cls-2" d="M21.25,48.93c0-.23,0-.46,0-.69,0-.1.03-.14.14-.14.42,0,.85,0,1.27,0,.12,0,.13.05.13.15,0,1.88,0,3.76,0,5.64,0,.1-.01.15-.13.14-.42,0-.85,0-1.27,0-.13,0-.15-.05-.14-.16,0-.23,0-.45,0-.74-.19.22-.34.4-.53.53-.47.33-.99.47-1.55.48-1.03.03-1.95-.25-2.67-1.04-1.04-1.15-1.06-3.28.12-4.36.57-.52,1.24-.74,1.99-.78.59-.03,1.17.05,1.72.29.35.16.65.38.93.66ZM21.33,51.07c0-1.19-.82-2-2.03-2-1.15,0-1.94.8-1.94,1.96,0,1.18.82,2.01,2,2.01,1.18,0,1.97-.79,1.97-1.97Z"/>
  <path class="cls-2" d="M38.46,48.99c0-.28,0-.51,0-.73,0-.12.03-.17.16-.17.41,0,.82,0,1.23,0,.13,0,.16.05.16.17,0,1.87,0,3.74,0,5.61,0,.12-.03.15-.15.15-.42,0-.83,0-1.25,0-.12,0-.15-.04-.15-.15,0-.23,0-.46,0-.73-.13.14-.22.25-.33.35-.49.45-1.09.63-1.73.65-1.04.04-1.97-.24-2.69-1.03-1.19-1.32-.98-3.61.4-4.59,1-.71,2.74-.73,3.76-.06.21.13.37.31.58.54ZM38.54,51.06c0-1.19-.82-2-2.03-1.99-1.16,0-1.92.79-1.92,1.96,0,1.2.8,2.01,1.99,2.01,1.18,0,1.96-.79,1.97-1.97Z"/>
  <path class="cls-3" d="M42.33,49.96c0-1.28,0-2.56,0-3.83,0-.09-.05-.21.13-.21,1.34,0,2.68-.01,4.01.02.93.02,1.82.26,2.6.81.99.71,1.44,1.7,1.51,2.89.05.88-.07,1.73-.54,2.51-.63,1.04-1.59,1.57-2.75,1.78-.37.07-.75.09-1.13.09-1.2,0-2.41,0-3.61,0-.19,0-.23-.05-.23-.23,0-1.28,0-2.56,0-3.83ZM43.36,49.99c0,1.04,0,2.08,0,3.12,0,.16.04.2.2.2.92,0,1.84.01,2.76,0,.85-.02,1.64-.25,2.27-.88.65-.65.89-1.47.92-2.36.07-1.98-1.12-3.3-3.08-3.39-.95-.04-1.9-.01-2.85-.03-.19,0-.22.06-.22.23,0,1.04,0,2.08,0,3.12Z"/>
  <path class="cls-5" d="M26.23,49.31c.09-.05.11-.14.15-.2.59-.96,1.69-1.37,2.76-1.04.11.03.18.06.13.21-.1.27-.17.55-.24.83-.03.12-.07.14-.2.11-.45-.1-.91-.12-1.36.04-.74.28-1.24,1.02-1.24,1.86,0,.89,0,1.78,0,2.67,0,.19-.05.23-.23.23-.38-.01-.76,0-1.14,0-.11,0-.17-.01-.17-.15,0-1.87,0-3.74,0-5.62,0-.13.04-.16.17-.16.4,0,.8,0,1.2,0,.15,0,.17.05.17.18,0,.34,0,.68,0,1.03Z"/>
  <path class="cls-7" d="M30.13,50.71c0-.89,0-1.64,0-2.39,0-.17.03-.23.22-.23.38.02.76.01,1.14,0,.16,0,.2.04.19.2,0,1.34,0,2.69,0,4.03,0,.08,0,.16,0,.24.03.24.12.33.35.29.19-.03.24.05.26.21.04.26.1.51.16.76.02.09.01.14-.08.17-.49.15-.99.23-1.49.05-.55-.19-.69-.68-.73-1.19-.06-.76-.01-1.53-.03-2.16Z"/>
  <path class="cls-7" d="M31.72,46.57c0,.48-.32.79-.82.79-.49,0-.84-.33-.84-.81,0-.47.34-.8.83-.8.49,0,.83.33.83.82Z"/>
</svg>